<?xml version="1.0" encoding="UTF-8" standalone="no"?>
<!-- Created with Inkscape (http://www.inkscape.org/) -->

<svg
   xmlns:dc="http://purl.org/dc/elements/1.1/"
   xmlns:cc="http://creativecommons.org/ns#"
   xmlns:rdf="http://www.w3.org/1999/02/22-rdf-syntax-ns#"
   xmlns:svg="http://www.w3.org/2000/svg"
   xmlns="http://www.w3.org/2000/svg"
   xmlns:sodipodi="http://sodipodi.sourceforge.net/DTD/sodipodi-0.dtd"
   xmlns:inkscape="http://www.inkscape.org/namespaces/inkscape"
   width="0.5in"
   height="0.5in"
   viewBox="0 0 12.7 12.7"
   version="1.1"
   id="svg1247"
   inkscape:version="0.92.3 (2405546, 2018-03-11)"
   sodipodi:docname="parachute_in_ocean.svg"
   inkscape:export-filename="C:\Users\mvernacc\repos\1st-stage-return\paper\figures\strategy_cartoons\parachute_in_ocean.png"
   inkscape:export-xdpi="400"
   inkscape:export-ydpi="400">
  <defs
     id="defs1241" />
  <sodipodi:namedview
     id="base"
     pagecolor="#ffffff"
     bordercolor="#666666"
     borderopacity="1.0"
     inkscape:pageopacity="0.0"
     inkscape:pageshadow="2"
     inkscape:zoom="7.9195959"
     inkscape:cx="17.384194"
     inkscape:cy="43.024822"
     inkscape:document-units="mm"
     inkscape:current-layer="layer1"
     showgrid="false"
     units="in"
     inkscape:window-width="1844"
     inkscape:window-height="1057"
     inkscape:window-x="68"
     inkscape:window-y="-8"
     inkscape:window-maximized="1" />
  <metadata
     id="metadata1244">
    <rdf:RDF>
      <cc:Work
         rdf:about="">
        <dc:format>image/svg+xml</dc:format>
        <dc:type
           rdf:resource="http://purl.org/dc/dcmitype/StillImage" />
        <dc:title />
      </cc:Work>
    </rdf:RDF>
  </metadata>
  <g
     inkscape:label="Layer 1"
     inkscape:groupmode="layer"
     id="layer1"
     transform="translate(0,-284.29998)">
    <g
       style="display:inline"
       id="g4777"
       transform="translate(-124.12958,222.02537)">
      <path
         inkscape:connector-curvature="0"
         id="path4710-8"
         d="m 130.56972,72.358753 1.04225,-0.183777 -0.64322,-3.647893 -1.04225,0.183777 z"
         style="fill:none;stroke:#000000;stroke-width:0.17638889;stroke-linecap:butt;stroke-linejoin:miter;stroke-miterlimit:4;stroke-dasharray:none;stroke-opacity:1" />
      <path
         sodipodi:nodetypes="ccc"
         inkscape:connector-curvature="0"
         id="path4761"
         d="m 128.05833,65.881251 c 0.79375,0.793751 3.96875,0.529166 4.49792,-0.264584 -1.05834,-2.910415 -4.23334,-2.116665 -4.49792,0.264584 z"
         style="fill:none;stroke:#000000;stroke-width:0.17638889;stroke-linecap:butt;stroke-linejoin:miter;stroke-miterlimit:4;stroke-dasharray:none;stroke-opacity:1" />
      <path
         inkscape:connector-curvature="0"
         id="path4763"
         d="m 130.43958,68.527082 2.11667,-2.910416"
         style="fill:none;stroke:#000000;stroke-width:0.08819444;stroke-linecap:butt;stroke-linejoin:miter;stroke-miterlimit:4;stroke-dasharray:none;stroke-opacity:1" />
      <path
         inkscape:connector-curvature="0"
         id="path4765"
         d="m 130.43958,68.527082 -2.38125,-2.645833"
         style="fill:none;stroke:#000000;stroke-width:0.08819444;stroke-linecap:butt;stroke-linejoin:miter;stroke-miterlimit:4;stroke-dasharray:none;stroke-opacity:1" />
      <path
         sodipodi:nodetypes="cc"
         inkscape:connector-curvature="0"
         id="path4767"
         d="m 130.43958,68.527082 0.78037,-2.289342"
         style="fill:none;stroke:#000000;stroke-width:0.08819444;stroke-linecap:butt;stroke-linejoin:miter;stroke-miterlimit:4;stroke-dasharray:none;stroke-opacity:1" />
      <path
         inkscape:connector-curvature="0"
         id="path4769"
         d="m 130.43958,68.52708 -0.73846,-2.171039"
         style="fill:none;stroke:#000000;stroke-width:0.08819444;stroke-linecap:butt;stroke-linejoin:miter;stroke-miterlimit:4;stroke-dasharray:none;stroke-opacity:1" />
    </g>
    <path
       style="fill:#000000;fill-opacity:1;stroke:none;stroke-width:0.08819444;stroke-linecap:round;stroke-linejoin:round;stroke-miterlimit:4;stroke-dasharray:none;stroke-dashoffset:0;stroke-opacity:1"
       id="path1844"
       d="m 2.3876458,295.31382 c 0.1820392,-0.12353 0.3766058,-0.22831 0.5754979,-0.32176 0.1669171,-0.0799 0.3460348,-0.12316 0.5257638,-0.16239 0.203217,-0.0464 0.4112369,-0.0625 0.6188218,-0.074 0.1536634,-0.012 0.3074883,-0.0219 0.4615083,-0.0278 0.126303,-0.007 0.251407,-0.003 0.376024,0.0186 0.116707,0.0156 0.223839,0.0631 0.331851,0.1067 0.123389,0.0555 0.245877,0.11308 0.370359,0.16606 0.114563,0.0507 0.236242,0.08 0.354765,0.11866 0.09549,0.0273 0.185665,0.069 0.274024,0.11387 0.07226,0.0424 0.148524,0.0784 0.228935,0.1021 0.09911,0.0262 0.202127,0.0287 0.30399,0.0315 0.08483,0.002 0.169678,0.001 0.254516,5.3e-4 0.07145,0 0.131525,-0.0242 0.192177,-0.0589 -0.357966,0.22283 -0.062,0.0183 0.02038,-0.0343 0.152034,-0.10971 0.31348,-0.20162 0.475908,-0.29538 0.107505,-0.0669 0.223995,-0.11466 0.339242,-0.16592 0.123447,-0.0578 0.256964,-0.0889 0.38846,-0.12251 0.152557,-0.0382 0.305811,-0.0743 0.460931,-0.10058 0.11842,-0.018 0.238126,-0.0232 0.357698,-0.0258 0.08919,9e-5 0.178437,-0.007 0.266349,0.0106 0.07629,0.0212 0.140723,0.0677 0.202691,0.11518 0.06972,0.067 0.145953,0.12678 0.221827,0.18659 0.06046,0.0522 0.1314214,0.0896 0.2004844,0.12882 0.06812,0.0401 0.138797,0.0765 0.210187,0.11048 0.06048,0.0331 0.120678,0.0663 0.184669,0.0922 0.09413,0.0322 0.193671,0.0449 0.292262,0.0548 0.08979,0.003 0.178585,0.0167 0.267932,0.0252 0.01195,10e-4 0.02389,0.002 0.03583,0.003 0,0 -0.189049,0.13491 -0.189049,0.13491 v 0 c -0.01192,-10e-4 -0.02385,-0.002 -0.03577,-0.003 -0.0888,-0.009 -0.177294,-0.0214 -0.266512,-0.0264 -0.100328,-0.0113 -0.202168,-0.0239 -0.297277,-0.0594 -0.06407,-0.0268 -0.125226,-0.0593 -0.185825,-0.0932 -0.07115,-0.0354 -0.142641,-0.0709 -0.2107894,-0.11188 -0.06987,-0.04 -0.141527,-0.0784 -0.202279,-0.13192 -0.07504,-0.0604 -0.149907,-0.12117 -0.220948,-0.18625 -0.0608,-0.044 -0.122862,-0.0889 -0.197418,-0.10579 -0.08693,-0.0137 -0.175045,-0.007 -0.262745,-0.008 -0.118285,0.002 -0.236738,0.008 -0.353709,0.0271 -0.154521,0.0272 -0.307483,0.0625 -0.459365,0.10178 -0.131367,0.0347 -0.264353,0.0672 -0.387382,0.12635 -0.115488,0.0506 -0.230332,0.1017 -0.33804,0.16799 0.341232,-0.19844 0.130035,-0.0766 0.09475,-0.0541 -0.04551,0.0291 -0.08852,0.062 -0.133194,0.0923 -0.01456,0.01 -0.02935,0.0194 -0.04402,0.0291 -0.13888,0.0887 -0.265071,0.19365 -0.416243,0.26377 -0.06274,0.0328 -0.127474,0.0505 -0.198976,0.0496 -0.08456,4e-5 -0.169147,2.7e-4 -0.253678,-0.002 -0.103346,-0.004 -0.207941,-0.007 -0.307962,-0.0361 -0.08106,-0.0257 -0.157923,-0.0622 -0.231218,-0.10532 -0.08753,-0.044 -0.17676,-0.0844 -0.271112,-0.11148 -0.119068,-0.0377 -0.239768,-0.0707 -0.354329,-0.12149 -0.124585,-0.0533 -0.247364,-0.11072 -0.371637,-0.16472 -0.106554,-0.0435 -0.21316,-0.0874 -0.328249,-0.10304 -0.123977,-0.0197 -0.248405,-0.0211 -0.373691,-0.0146 -0.1529025,0.005 -0.3055747,0.0148 -0.458166,0.0258 -0.2070095,0.0113 -0.4141306,0.029 -0.616448,0.0768 -0.1794407,0.0398 -0.357392,0.0865 -0.5235942,0.16716 -0.039467,0.0188 -0.1090354,0.0514 -0.1486236,0.0725 -0.022527,0.012 -0.088387,0.0512 -0.066582,0.0379 0.2681792,-0.1634 0.091709,-0.0563 0.033841,-0.0146 0,0 -0.2168406,0.0848 -0.2168406,0.0848 z"
       inkscape:connector-curvature="0" />
  </g>
</svg>
